<svg xmlns="http://www.w3.org/2000/svg" viewBox="0 0 256 144" role="img" aria-label="Cloudflare">
  <path fill="#f38020" d="M91.2 115.2h112.7c19.3 0 35-15.6 35-34.9 0-17.6-13.1-32.3-30.5-34.6C200.7 18.7 175.9 0 147.4 0c-30.6 0-56.9 21.6-63.1 51.3-22.6 3.4-39.8 22.8-39.8 46.1 0 9.8 7.9 17.8 17.8 17.8h28.9z"/>
  <path fill="#faae40" d="M39.6 115.2h58.1c17.1 0 31-13.9 31-31 0-15.8-11.9-29-27.6-30.8C94.2 29.9 72.6 13.7 47.9 13.7 21.4 13.7 0 35.1 0 61.6c0 9.9 3 19 8.1 26.6-5 5.8-8.1 13.4-8.1 21.7 0 18.4 14.9 33.3 33.3 33.3h6.3c7.7 0 14-6.3 14-14s-6.3-14-14-14z"/>
  <path fill="#fff" fill-opacity=".85" d="M92.1 115.2h111.8c9.7 0 18.3-4 24.6-10.4H77.2c-4.3 0-7.8-3.5-7.8-7.8 0-17.8 14.4-32.2 32.2-32.2h5.7l1.1-5.5c3.8-19.1 20.7-33 40.2-33 18 0 33.7 11.8 39 28.4l1.4 4.4 4.6.2c11.7.5 21.3 8.2 24.7 18.7-1.3-13.7-12.1-24.9-26-26.4-7.3-19.2-25.7-32.5-47.1-32.5-24.4 0-45.5 17.3-50.3 41.2-18 3-31.7 18.7-31.7 37.5 0 9.6 7.8 17.4 17.4 17.4z"/>
</svg>
